# xmcd
#
# Track frame offsets:
#      150
#      17195
#      34887
#      49857
#      66970
#      86807
#      99695
#      114242
#      128625
#      144800
#      162522
#      176362
#      187265
# 
# Disc length: 2663 seconds
#
# Revision: 1
# Processed by: cddbd v1.4PL0 Copyright (c) Steve Scherf et al.
#
# Submitted via: FreeRIP 1.21
#
DISCID=b30a650d
DTITLE=Dimitris Kokotas - Se Reumata Antitheta
DYEAR=1999
DGENRE=blues
TTITLE0=Eisai gynaika ouranos
TTITLE1=Ena fullo sto voria
TTITLE2=Pantou simadia sou
TTITLE3=Ti sou xrostao
TTITLE4=Mhnuma frapto
TTITLE5=Diprosoph kardia
TTITLE6=Anemothyella
TTITLE7=Den exeis tipota na doseis
TTITLE8=S'ekeini na fyriseis
TTITLE9=Se reumata antitheta
TTITLE10=Ti ekanes gia mena
TTITLE11=Den mporeis
TTITLE12=Ola tha perasoun
EXTD=
EXTT0=
EXTT1=
EXTT2=
EXTT3=
EXTT4=
EXTT5=
EXTT6=
EXTT7=
EXTT8=
EXTT9=
EXTT10=
EXTT11=
EXTT12=
PLAYORDER=
